<svg xmlns="http://www.w3.org/2000/svg" viewBox="0 0 48 48"><path d="M36 39h-3.4a1.5 1.5 0 1 1 0-3H36v.08a1.5 1.5 0 0 1 0 2.84Zm-9.21 0h-2.9a1.5 1.5 0 0 1 0-3h2.9a1.5 1.5 0 0 1 0 3Zm-8.71 0h-2.9a1.5 1.5 0 0 1 0-3h2.9a1.5 1.5 0 0 1 0 3Zm-7.58-2A1.5 1.5 0 0 1 9 35.5v-2.9a1.5 1.5 0 0 1 3 0v2.9a1.5 1.5 0 0 1-1.5 1.5Zm27-2.69a1.5 1.5 0 0 1-1.5-1.5v-2.9a1.5 1.5 0 0 1 3 0v2.9a1.5 1.5 0 0 1-1.5 1.5Zm-27-6.02A1.5 1.5 0 0 1 9 26.8v-2.9a1.5 1.5 0 0 1 3 0v2.9a1.5 1.5 0 0 1-1.5 1.5Zm27-2.7a1.5 1.5 0 0 1-1.5-1.5v-2.9a1.5 1.5 0 0 1 3 0v2.9a1.5 1.5 0 0 1-1.5 1.5Zm-27-6a1.5 1.5 0 0 1-1.5-1.5v-2.91a1.5 1.5 0 0 1 3 0v2.9a1.5 1.5 0 0 1-1.5 1.5Zm27-2.7a1.5 1.5 0 0 1-1.5-1.5V12.5a1.5 1.5 0 0 1 1.5-1.5 1.5 1.5 0 0 1 1.5 1.48v2.9a1.5 1.5 0 0 1-1.5 1.5ZM32.82 12h-2.9a1.5 1.5 0 0 1 0-3h2.9a1.5 1.5 0 0 1 0 3Zm-8.72 0h-2.9a1.5 1.5 0 0 1 0-3h2.9a1.5 1.5 0 0 1 0 3Zm-8.7 0h-2.9a1.5 1.5 0 1 1-.01-3h2.9a1.5 1.5 0 1 1 0 3Z"/></svg>