<svg xmlns="http://www.w3.org/2000/svg" viewBox="0 0 48 48"><path d="M39 36a.5.5 0 0 1-.5.5h-29A.5.5 0 0 1 9 36V19H6v17a3.5 3.5 0 0 0 3.5 3.5h29A3.5 3.5 0 0 0 42 36V19h-3ZM34.74 13a.5.5 0 0 1-.45-.28l-1.4-2.79A3.48 3.48 0 0 0 29.76 8h-5.02a3.48 3.48 0 0 0-3.13 1.93l-1.11 2.22-1.1-2.22A3.48 3.48 0 0 0 16.25 8h-5.02A3.48 3.48 0 0 0 8.1 9.93l-1.74 3.48A3.52 3.52 0 0 0 6 14.97V16h3v-1.03a.5.5 0 0 1 .05-.22l1.74-3.47a.5.5 0 0 1 .45-.28h5.02a.5.5 0 0 1 .45.28l2.45 4.9h2.68l2.45-4.9a.5.5 0 0 1 .45-.28h5.02a.5.5 0 0 1 .45.28l1.4 2.79A3.48 3.48 0 0 0 34.74 16H42v-3Z"/></svg>