<svg xmlns="http://www.w3.org/2000/svg" viewBox="0 0 48 48"><rect width="14" height="14" x="8" y="8" rx="3.5"/><path d="M18.5 26h-7A3.5 3.5 0 0 0 8 29.5v7a3.5 3.5 0 0 0 3.5 3.5h7a3.5 3.5 0 0 0 3.5-3.5v-7a3.5 3.5 0 0 0-3.5-3.5Zm.5 10.5a.5.5 0 0 1-.5.5h-7a.5.5 0 0 1-.5-.5v-7a.5.5 0 0 1 .5-.5h7a.5.5 0 0 1 .5.5ZM36.5 8h-7a3.5 3.5 0 0 0-3.5 3.5v7a3.5 3.5 0 0 0 3.5 3.5h7a3.5 3.5 0 0 0 3.5-3.5v-7A3.5 3.5 0 0 0 36.5 8Zm.5 10.5a.5.5 0 0 1-.5.5h-7a.5.5 0 0 1-.5-.5v-7a.5.5 0 0 1 .5-.5h7a.5.5 0 0 1 .5.5Z"/></svg>