<svg xmlns="http://www.w3.org/2000/svg" viewBox="0 0 48 48"><rect width="14" height="14" x="8" y="8" rx="3.5" ry="3.5"/><path d="M18.5 40h-7A3.5 3.5 0 0 1 8 36.5v-7a3.5 3.5 0 0 1 3.5-3.5h7a3.5 3.5 0 0 1 3.5 3.5v7a3.5 3.5 0 0 1-3.5 3.5Zm-7-11a.5.5 0 0 0-.5.5v7c0 .28.22.5.5.5h7a.5.5 0 0 0 .5-.5v-7a.5.5 0 0 0-.5-.5h-7ZM36.5 22h-7a3.5 3.5 0 0 1-3.5-3.5v-7A3.5 3.5 0 0 1 29.5 8h7a3.5 3.5 0 0 1 3.5 3.5v7a3.5 3.5 0 0 1-3.5 3.5Zm-7-11a.5.5 0 0 0-.5.5v7c0 .28.22.5.5.5h7a.5.5 0 0 0 .5-.5v-7a.5.5 0 0 0-.5-.5h-7Z"/></svg>