<svg xmlns="http://www.w3.org/2000/svg" viewBox="0 0 48 48"><circle cx="27" cy="30" r="1.5"/><circle cx="33" cy="30" r="1.5"/><circle cx="21" cy="30" r="1.5"/><circle cx="15" cy="30" r="1.5"/><circle cx="9" cy="30" r="1.5"/><circle cx="39" cy="30" r="1.5"/><circle cx="27" cy="41" r="1.5"/><circle cx="39" cy="35.5" r="1.5"/><circle cx="9" cy="35.5" r="1.5"/><circle cx="33" cy="41" r="1.5"/><circle cx="21" cy="41" r="1.5"/><circle cx="15" cy="41" r="1.5"/><circle cx="9" cy="41" r="1.5"/><circle cx="39" cy="41" r="1.5"/><circle cx="27" cy="7" r="1.5"/><circle cx="33" cy="7" r="1.5"/><circle cx="21" cy="7" r="1.5"/><circle cx="15" cy="7" r="1.5"/><circle cx="9" cy="7" r="1.5"/><circle cx="39" cy="7" r="1.5"/><circle cx="27" cy="18" r="1.5"/><circle cx="39" cy="12.5" r="1.5"/><circle cx="9" cy="12.5" r="1.5"/><circle cx="33" cy="18" r="1.5"/><circle cx="21" cy="18" r="1.5"/><circle cx="15" cy="18" r="1.5"/><circle cx="9" cy="18" r="1.5"/><circle cx="39" cy="18" r="1.5"/></svg>