<svg xmlns="http://www.w3.org/2000/svg" viewBox="0 0 48 48"><path d="M40.5 13.5h-3V9a.5.5 0 0 0-.5-.5H11a.5.5 0 0 0-.5.5v4.5h-3V9A3.5 3.5 0 0 1 11 5.5h26A3.5 3.5 0 0 1 40.5 9v4.5ZM40.5 24.5h-3V20a.5.5 0 0 0-.5-.5H11a.5.5 0 0 0-.5.5v4.5h-3V20a3.5 3.5 0 0 1 3.5-3.5h26a3.5 3.5 0 0 1 3.5 3.5v4.5Z"/><circle cx="27" cy="30" r="1.5"/><circle cx="33" cy="30" r="1.5"/><circle cx="21" cy="30" r="1.5"/><circle cx="15" cy="30" r="1.5"/><circle cx="9" cy="30" r="1.5"/><circle cx="39" cy="30" r="1.5"/><circle cx="27" cy="41" r="1.5"/><circle cx="39" cy="35.5" r="1.5"/><circle cx="9" cy="35.5" r="1.5"/><circle cx="33" cy="41" r="1.5"/><circle cx="21" cy="41" r="1.5"/><circle cx="15" cy="41" r="1.5"/><circle cx="9" cy="41" r="1.5"/><circle cx="39" cy="41" r="1.5"/></svg>