<svg xmlns="http://www.w3.org/2000/svg" viewBox="0 0 48 48"><path d="M37 27H11a3.5 3.5 0 0 1-3.5-3.5V21h3v2.5c0 .28.22.5.5.5h26a.5.5 0 0 0 .5-.5V21h3v2.5A3.5 3.5 0 0 1 37 27ZM37 14H11a3.5 3.5 0 0 1-3.5-3.5V8h3v2.5c0 .28.22.5.5.5h26a.5.5 0 0 0 .5-.5V8h3v2.5A3.5 3.5 0 0 1 37 14Z"/><circle cx="24" cy="38.5" r="1.5"/><circle cx="29.5" cy="38.5" r="1.5"/><circle cx="35" cy="38.5" r="1.5"/><circle cx="18.5" cy="38.5" r="1.5"/><circle cx="13" cy="38.5" r="1.5"/><circle cx="9" cy="35.5" r="1.5"/><circle cx="39" cy="35.5" r="1.5"/></svg>