<svg xmlns="http://www.w3.org/2000/svg" viewBox="0 0 48 48"><path d="M36.74 11a.5.5 0 0 1-.45-.28l-1.4-2.79A3.48 3.48 0 0 0 31.76 6h-5.02a3.48 3.48 0 0 0-3.13 1.93l-1.11 2.22-1.1-2.22A3.48 3.48 0 0 0 18.25 6h-5.02a3.48 3.48 0 0 0-3.13 1.93l-1.74 3.48A3.52 3.52 0 0 0 8 12.97V14h3v-1.03a.5.5 0 0 1 .05-.22l1.74-3.47a.5.5 0 0 1 .45-.28h5.02a.5.5 0 0 1 .45.28l2.45 4.9h2.68l2.45-4.9a.5.5 0 0 1 .45-.28h5.02a.5.5 0 0 1 .45.28l1.4 2.79A3.48 3.48 0 0 0 36.74 14H40v-3ZM36.29 38.72l-1.4-2.79A3.48 3.48 0 0 0 31.76 34h-5.02a3.48 3.48 0 0 0-3.13 1.93l-1.11 2.22-1.1-2.22A3.48 3.48 0 0 0 18.25 34h-5.02a3.48 3.48 0 0 0-3.13 1.93l-1.74 3.48A3.52 3.52 0 0 0 8 40.97V42h3v-1.03a.5.5 0 0 1 .05-.22l1.74-3.47a.5.5 0 0 1 .45-.28h5.02a.5.5 0 0 1 .45.28l2.45 4.9h2.68l2.45-4.9a.5.5 0 0 1 .45-.28h5.02a.5.5 0 0 1 .45.28l1.4 2.79A3.48 3.48 0 0 0 36.74 42H40v-3h-3.26a.5.5 0 0 1-.45-.28ZM36.5 17h-25A3.5 3.5 0 0 0 8 20.5v7a3.5 3.5 0 0 0 3.5 3.5h25a3.5 3.5 0 0 0 3.5-3.5v-7a3.5 3.5 0 0 0-3.5-3.5Zm.5 10.5a.5.5 0 0 1-.5.5h-25a.5.5 0 0 1-.5-.5v-7a.5.5 0 0 1 .5-.5h25a.5.5 0 0 1 .5.5Z"/></svg>