<svg xmlns="http://www.w3.org/2000/svg" viewBox="0 0 48 48"><path d="M36 32.5v-18a3.5 3.5 0 0 0-3.5-3.5H21.24a.5.5 0 0 1-.45-.28l-1.4-2.79A3.48 3.48 0 0 0 16.26 6h-5.02A3.48 3.48 0 0 0 8.1 7.93l-1.74 3.48A3.52 3.52 0 0 0 6 12.97V32.5A3.5 3.5 0 0 0 9.5 36h23a3.5 3.5 0 0 0 3.5-3.5Zm-27 0V12.97a.5.5 0 0 1 .05-.22l1.74-3.47a.5.5 0 0 1 .45-.28h5.02a.5.5 0 0 1 .45.28l1.4 2.79A3.48 3.48 0 0 0 21.24 14H32.5a.5.5 0 0 1 .5.5v18a.5.5 0 0 1-.5.5h-23a.5.5 0 0 1-.5-.5Z"/><path d="M40.5 16v22a2.5 2.5 0 0 1-2.5 2.5H12v3h26a5.5 5.5 0 0 0 5.5-5.5V16Z"/></svg>