<svg xmlns="http://www.w3.org/2000/svg" viewBox="0 0 48 48"><path d="M35.5 32V14a3.5 3.5 0 0 0-3.5-3.5H20.74a.5.5 0 0 1-.45-.28l-1.4-2.79a3.48 3.48 0 0 0-3.13-1.93h-5.02A3.48 3.48 0 0 0 7.6 7.43l-1.74 3.48a3.52 3.52 0 0 0-.37 1.56V32A3.5 3.5 0 0 0 9 35.5h23a3.5 3.5 0 0 0 3.5-3.5Zm-27 0V12.47a.5.5 0 0 1 .05-.22l1.74-3.47a.5.5 0 0 1 .45-.28h5.02a.5.5 0 0 1 .45.28l1.4 2.79a3.48 3.48 0 0 0 3.13 1.93H32a.5.5 0 0 1 .5.5v18a.5.5 0 0 1-.5.5H9a.5.5 0 0 1-.5-.5Z"/><path d="M40 15.5v22a2.5 2.5 0 0 1-2.5 2.5h-26v3h26a5.5 5.5 0 0 0 5.5-5.5v-22Z"/></svg>